# xmcd
#
# Track frame offsets: 
#        150
#        12723
#        25330
#        36953
#        50190
#        62573
#        75243
#        87568
#        99255
#        110153
#
# Disc length: 1626 seconds
#
# Revision: 4
# Processed by: cddbd v1.5.2PL0 Copyright (c) Steve Scherf et al.
# Submitted via: ExactAudioCopy v0.99pb4
#
DISCID=8106580a
DTITLE=Various Artist - Billboard Top R&B Hits - 1966
DYEAR=1989
DGENRE=R&B
TTITLE0=Supremes - You Keep Me Hangin' On
TTITLE1=Bobby Hebb - Sunny
TTITLE2=Temptations - Ain't Too Proud To Beg
TTITLE3=Wilson Pickett - 634-5789 (Soulsville U.S.A.)
TTITLE4=James Brown - It's A Man's Man's Man's World
TTITLE5=Miracles - Going To A Go-Go
TTITLE6=Capitols - Cool Jerk
TTITLE7=Robert Parker - Barefootin'
TTITLE8=Temptations - Beauty Is Only Skin Deep
TTITLE9=Joe Tex - A Sweet Woman Like You
EXTD=
EXTT0=The Supremes
EXTT1=Bobby Hebb
EXTT2=The Temptations
EXTT3=Wilson Pickett
EXTT4=James Brown
EXTT5=The Miracles
EXTT6=The Capitols
EXTT7=Robert Parker
EXTT8=The Temptations
EXTT9=Joe Tex
PLAYORDER=
